HIERARCHY
ROOT pelvis
{
  OFFSET 0 100 0
  CHANNELS 6 Xposition Yposition Zposition Zrotation Xrotation Yrotation
  JOINT pelvis_right_femur
  {
    OFFSET -10.78128 -3.44521 -0.5502486
    CHANNELS 3 Zrotation Xrotation Yrotation
    JOINT right_femur_tibia
    {
      OFFSET -0.8047443 -44.0398 -0.1307829
      CHANNELS 3 Zrotation Xrotation Yrotation
      JOINT right_tibia_foot
      {
        OFFSET 3.006224 -47.83518 -5
        CHANNELS 3 Zrotation Xrotation Yrotation
        End Site
        {
          OFFSET 0 -5 15
        }
      }
    }
  }
  JOINT pelvis_left_femur
  {
    OFFSET 10.78128 -3.44521 -0.5502486
    CHANNELS 3 Zrotation Xrotation Yrotation
    JOINT left_femur_tibia
    {
      OFFSET 0.8047443 -44.0398 -0.1307829
      CHANNELS 3 Zrotation Xrotation Yrotation
      JOINT left_tibia_foot
      {
        OFFSET -4.370144 -48.10324 -4.275266
        CHANNELS 3 Zrotation Xrotation Yrotation
        End Site
        {
          OFFSET 0 -5 15
        }
      }
    }
  }
  JOINT pelvis_spine1
  {
    OFFSET 0 6.468898 -3.129235
    CHANNELS 3 Zrotation Xrotation Yrotation
    JOINT spine1
    {
      OFFSET 0 23.15396 4.99043
      CHANNELS 3 Zrotation Xrotation Yrotation
      JOINT spine2
      {
        OFFSET 0 20.79997 -5.064912
        CHANNELS 3 Zrotation Xrotation Yrotation
        JOINT neck
        {
          OFFSET 0 14.38658 9.616178
          CHANNELS 3 Zrotation Xrotation Yrotation
          End Site
          {
            OFFSET 0 20 0
          }
        }
      }
      JOINT right_manubrium
      {
        OFFSET -5.722621 16.35077 3.967754
        CHANNELS 3 Zrotation Xrotation Yrotation
        JOINT right_clavicle
        {
          OFFSET -13.16364 1.694482 -4.693211
          CHANNELS 3 Zrotation Xrotation Yrotation
          JOINT right_humerus
          {
            OFFSET -28.5034 -0.3100689 -2.792744
            CHANNELS 3 Zrotation Xrotation Yrotation
            JOINT right_radius
            {
              OFFSET -25.15693 0.02248979 -1.271978
              CHANNELS 3 Zrotation Xrotation Yrotation
              End Site
              {
                OFFSET -15 0 0
              }
            }
          }
        }
      }
      JOINT left_manubrium
      {
        OFFSET 5.722621 16.35077 3.967754
        CHANNELS 3 Zrotation Xrotation Yrotation
        JOINT left_clavicle
        {
          OFFSET 13.16364 1.694482 -4.693211
          CHANNELS 3 Zrotation Xrotation Yrotation
          JOINT left_humerus
          {
            OFFSET 29.39168 -1.063119 -2.237045
            CHANNELS 3 Zrotation Xrotation Yrotation
            JOINT left_radius
            {
              OFFSET 24.59957 -0.9528479 0.9047498
              CHANNELS 3 Zrotation Xrotation Yrotation
              End Site
              {
                OFFSET 15 -0 -0
              }
            }
          }
        }
      }
    }
  }
}
MOTION
Frames: 9
Frame Time: 0.0416666666667
0 103.5113 0 1.414375 -3.082296 0.1210568 1.373763 -11.2084 6.845908 -0 40.33826 -0 -6.474125 -16.49466 -3.879928 -6.474265 12.23087 -23.7041 -0 5.692632 -0 0.149007 -18.48834 22.68394 -0.3503261 -1.709081 4.564815 0.07258931 7.219043 -7.052316 1.364344 21.79613 8.667962 5.6859 -22.92183 8.964523 5.766638 -18.5341 10.00838 88.05856 35.60379 -23.29406 -0 0 17.5715 -6.655112 8.743603 2.499607 7.656464 -21.09412 -2.056412 -102.0254 42.00859 30.08396 0 0 -25.76397 -8.460484 16.59668 27.80125
0.1878063 103.6294 1.272707 0.681288 -2.691506 0.040804 2.387531 -13.17867 8.025115 -0 42.17796 -0 -6.435775 -16.1874 -4.85496 -5.876205 12.25283 -23.68407 -0 6.415876 -0 -1.80877 -19.6671 22.25566 -0.3106898 -1.699712 4.596051 0.02967865 7.257128 -7.056436 1.366324 21.75823 8.691949 5.7096 -22.86812 8.96651 5.76542 -18.51983 9.997319 88.1571 35.77813 -23.36011 -0 0 17.49708 -6.768606 8.914099 2.51376 7.730079 -21.18895 -2.004843 -101.8717 41.91463 29.93596 0 0 -25.89947 -8.303106 16.61964 27.67416
0.3844148 103.5752 2.753298 0.09547981 -1.585731 -0.06901963 3.768165 -17.97035 8.295063 -0 39.10863 -0 -6.170457 -14.58416 -4.960923 -5.633322 12.33682 -22.89928 -0 6.328849 -0 -0.830946 -21.03985 22.23139 -0.8829994 -1.397275 3.933369 0.8053808 7.16048 -7.295138 1.240665 22.14588 8.306021 5.237243 -23.09505 8.608721 5.860966 -17.93976 10.37018 87.68428 35.77238 -22.67018 -0 0 15.95589 -7.930204 9.049843 3.692928 6.64082 -20.58514 -2.523133 -99.45415 40.61749 27.34758 0 0 -24.47878 -8.277064 16.54344 26.66171
0.5812047 103.3517 4.437053 -0.4114843 -0.6836463 -0.1744535 4.885125 -21.92833 8.488686 -0 36.42991 -0 -6.027877 -13.10564 -5.039241 -5.373577 12.46706 -22.27051 -0 6.299854 -0 -0.5637174 -22.3301 21.91906 -1.048571 -1.301851 3.637999 1.101467 7.159348 -7.447178 1.181319 22.23282 8.223785 5.092048 -23.16289 8.511604 5.912218 -17.6437 10.49749 87.74032 35.77295 -22.71855 -0 0 15.21802 -8.333463 9.183063 4.089576 6.334317 -20.48484 -2.736883 -98.40823 40.04452 26.1508 0 0 -24.1757 -8.158403 16.48865 26.16212
0.7727758 102.8945 6.436706 -0.7825141 0.3463945 -0.2332671 5.839192 -26.10447 8.321445 -0 32.43838 -0 -5.899048 -11.26544 -4.80163 -5.235594 12.7061 -21.51437 -0 6.149493 -0 0.1216369 -23.53607 21.52407 -1.243904 -1.192011 3.260707 1.477377 7.159328 -7.650055 1.104529 22.32557 8.135129 4.91645 -23.26151 8.404993 5.976576 -17.26928 10.65226 87.84761 35.71391 -22.84925 -0 0 14.29972 -8.766429 9.312636 4.552385 5.971215 -20.37284 -3.015442 -97.16203 39.32703 24.69422 0 0 -23.85077 -8.009347 16.38914 25.54
0.9482699 102.1975 8.83175 -1.054813 1.398878 -0.2069492 6.561896 -29.98461 7.938259 -0 28.03103 -0 -5.816375 -9.289806 -4.416952 -5.146734 13.06985 -20.73349 -0 6.134656 -0 0.6428276 -24.56307 20.90272 -1.347544 -1.119316 2.947899 1.754869 7.188998 -7.84783 1.040719 22.34727 8.115502 4.813435 -23.31506 8.352569 6.035228 -16.9307 10.75465 88.11042 35.69732 -23.18042 -0 0 13.48703 -9.076025 9.492939 4.858706 5.785082 -20.39755 -3.231211 -96.11863 38.71856 23.42285 0 0 -23.80454 -7.794258 16.30023 24.97119
1.095186 101.2906 11.72841 -1.245895 2.478655 -0.05045841 7.031408 -33.41186 7.317414 -0 23.39378 -0 -5.793863 -7.17875 -3.893794 -5.089666 13.59915 -19.89187 -0 6.505075 -0 0.8689381 -25.25298 19.95187 -1.429917 -1.046057 2.645108 2.016704 7.240392 -8.054768 0.9773422 22.34382 8.108497 4.722605 -23.34479 8.302829 6.09373 -16.58176 10.8515 88.42824 35.71554 -23.56986 -0 0 12.64317 -9.415774 9.73181 5.162883 5.638239 -20.47311 -3.435491 -95.04117 38.04339 22.10106 0 0 -23.8469 -7.50343 16.19543 24.33654
1.201739 100.2579 15.22945 -1.408587 3.508602 0.2738929 7.262818 -35.98398 6.539567 -0 19.13899 -0 -5.848548 -5.111897 -3.334528 -5.001897 14.3036 -19.00407 -0 7.615842 -0 0.4327812 -25.39152 18.51785 -1.48308 -0.9752129 2.389302 2.230848 7.318957 -8.249154 0.9211655 22.31346 8.11054 4.651961 -23.32928 8.251532 6.145997 -16.25307 10.93577 88.77014 35.79705 -23.96562 -0 0 11.83563 -9.809374 10.0449 5.460118 5.546635 -20.60341 -3.602598 -93.99138 37.32375 20.81716 0 0 -23.97643 -7.134857 16.08409 23.66408
1.25976 99.23989 19.42566 -1.612125 4.371151 0.7830898 7.344642 -37.23751 5.724472 -0 15.91098 -0 -5.997375 -3.338221 -2.85193 -4.808393 15.13787 -18.061 -0 9.914381 -0 -0.9619443 -24.66878 16.48976 -1.526155 -0.8991115 2.197185 2.398719 7.422996 -8.413295 0.8736675 22.27212 8.098655 4.586288 -23.26458 8.179648 6.187124 -15.96431 11.01764 89.05943 35.94274 -24.26173 -0 0 11.09996 -10.31083 10.42549 5.794352 5.47256 -20.75036 -3.729444 -92.97746 36.53626 19.60986 0 0 -24.11273 -6.701259 15.95855 22.95774
